<svg width="20" height="20" viewBox="0 0 20 20" fill="none" xmlns="http://www.w3.org/2000/svg">
<path d="M0 9.638C0 8.773 0.11 7.935 0.316 7.134C0.868465 7.16304 1.4182 7.03875 1.90444 6.77487C2.39068 6.51099 2.79448 6.11779 3.07121 5.63874C3.34793 5.1597 3.48681 4.61346 3.47247 4.06042C3.45814 3.50738 3.29117 2.96907 2.99 2.505C4.19894 1.31557 5.69079 0.453496 7.325 0C7.57599 0.493473 7.95864 0.907867 8.43058 1.19731C8.90253 1.48675 9.44537 1.63995 9.999 1.63995C10.5526 1.63995 11.0955 1.48675 11.5674 1.19731C12.0394 0.907867 12.422 0.493473 12.673 0C14.3072 0.453496 15.7991 1.31557 17.008 2.505C16.7065 2.96915 16.5393 3.50767 16.5248 4.06097C16.5104 4.61426 16.6493 5.16076 16.9262 5.64001C17.2031 6.11926 17.6071 6.51257 18.0937 6.77642C18.5802 7.04026 19.1303 7.16437 19.683 7.135C19.889 7.935 19.999 8.773 19.999 9.638C19.999 10.503 19.889 11.341 19.683 12.142C19.1305 12.1128 18.5806 12.2369 18.0942 12.5007C17.6078 12.7645 17.2039 13.1577 16.927 13.6368C16.6502 14.1159 16.5112 14.6622 16.5255 15.2153C16.5398 15.7685 16.7068 16.3069 17.008 16.771C15.7991 17.9604 14.3072 18.8225 12.673 19.276C12.422 18.7825 12.0394 18.3681 11.5674 18.0787C11.0955 17.7892 10.5526 17.636 9.999 17.636C9.44537 17.636 8.90253 17.7892 8.43058 18.0787C7.95864 18.3681 7.57599 18.7825 7.325 19.276C5.69079 18.8225 4.19894 17.9604 2.99 16.771C3.29151 16.3068 3.45873 15.7683 3.47317 15.215C3.48761 14.6617 3.3487 14.1152 3.07181 13.636C2.79492 13.1567 2.39085 12.7634 1.90431 12.4996C1.41776 12.2357 0.867704 12.1116 0.315 12.141C0.11 11.342 0 10.504 0 9.638ZM4.804 12.638C5.434 13.729 5.614 14.984 5.368 16.162C5.776 16.452 6.21 16.703 6.665 16.912C7.58167 16.0908 8.76931 15.6371 10 15.638C11.26 15.638 12.438 16.109 13.335 16.912C13.79 16.703 14.224 16.452 14.632 16.162C14.3794 14.958 14.5803 13.7031 15.196 12.638C15.8106 11.5724 16.797 10.7712 17.966 10.388C18.0122 9.88907 18.0122 9.38693 17.966 8.888C16.7966 8.50506 15.8099 7.70382 15.195 6.638C14.5793 5.57293 14.3784 4.31804 14.631 3.114C14.2231 2.82392 13.7889 2.57282 13.334 2.364C12.4176 3.18493 11.2303 3.63861 10 3.638C8.76931 3.63886 7.58167 3.18516 6.665 2.364C6.21013 2.57282 5.77589 2.82393 5.368 3.114C5.62056 4.31804 5.41972 5.57293 4.804 6.638C4.18937 7.70363 3.20298 8.50485 2.034 8.888C1.98775 9.38693 1.98775 9.88907 2.034 10.388C3.20335 10.7709 4.19013 11.5722 4.805 12.638H4.804ZM10 12.638C9.20435 12.638 8.44129 12.3219 7.87868 11.7593C7.31607 11.1967 7 10.4336 7 9.638C7 8.84235 7.31607 8.07929 7.87868 7.51668C8.44129 6.95407 9.20435 6.638 10 6.638C10.7956 6.638 11.5587 6.95407 12.1213 7.51668C12.6839 8.07929 13 8.84235 13 9.638C13 10.4336 12.6839 11.1967 12.1213 11.7593C11.5587 12.3219 10.7956 12.638 10 12.638ZM10 10.638C10.2652 10.638 10.5196 10.5326 10.7071 10.3451C10.8946 10.1576 11 9.90322 11 9.638C11 9.37278 10.8946 9.11843 10.7071 8.93089C10.5196 8.74336 10.2652 8.638 10 8.638C9.73478 8.638 9.48043 8.74336 9.29289 8.93089C9.10536 9.11843 9 9.37278 9 9.638C9 9.90322 9.10536 10.1576 9.29289 10.3451C9.48043 10.5326 9.73478 10.638 10 10.638V10.638Z" fill="#333333"/>
</svg>
