<svg width="136" height="147" viewBox="0 0 136 147" fill="none" xmlns="http://www.w3.org/2000/svg">
<path d="M68.8606 42.4541L70.9285 64.4302C71.1395 66.667 68.6802 68.1594 66.7926 66.9432L53.3569 58.2686L61.9931 48.1131L2.74072 2.8103L68.8606 42.4541Z" fill="#49263E"/>
<path d="M91.4399 15.0492L68.8615 42.4541L0.965332 1.45605L91.4399 15.0492Z" fill="#F0EEFF"/>
<path d="M61.994 48.1093L34.9038 79.9878L0.965332 1.45605L61.994 48.1093Z" fill="#F0EEFF"/>
<path d="M135.042 146.503C134.935 146.503 134.823 146.484 134.716 146.446C121.319 141.596 112.303 129.465 109.974 113.163C109.74 111.521 109.583 109.871 109.498 108.237C106.03 108.547 102.458 108.39 98.9283 107.631C75.0225 102.497 70.9711 73.3082 70.9365 73.0127C70.8675 72.4871 71.2358 72.0076 71.7652 71.9385C72.2755 71.8694 72.7704 72.2377 72.8395 72.7672C72.8779 73.0473 76.7643 100.905 99.3312 105.754C102.673 106.472 106.103 106.606 109.437 106.28C109.26 94.7318 112.729 84.0737 118.414 79.9187C121.434 77.7126 124.868 77.4325 128.355 79.1245C134.689 82.1899 137.267 87.0164 135.426 92.3723C132.944 99.5852 122.968 106.38 111.413 108.018C111.493 109.633 111.65 111.268 111.881 112.894C114.102 128.467 122.665 140.042 135.376 144.642C135.875 144.823 136.132 145.371 135.951 145.87C135.802 146.261 135.434 146.503 135.042 146.503ZM123.905 79.957C122.385 79.957 120.927 80.4596 119.546 81.4725C114.351 85.2669 111.198 95.1807 111.347 106.046C121.99 104.442 131.359 98.2922 133.607 91.7508C135.138 87.2926 133.036 83.5251 127.515 80.8548C126.276 80.2563 125.071 79.957 123.905 79.957Z" fill="#49263E"/>
<path d="M68.8586 43.4132C68.6897 43.4132 68.5171 43.3671 68.3598 43.2751L0.467454 2.27698C0.0147357 2.00458 -0.131055 1.41374 0.141343 0.961018C0.417578 0.504461 1.00841 0.362506 1.46113 0.634906L68.6475 41.2033L90.7003 14.4391C91.0341 14.0285 91.6479 13.971 92.0508 14.3086C92.4613 14.6462 92.5188 15.2486 92.1812 15.6591L69.6029 43.0602C69.411 43.2904 69.1348 43.4132 68.8586 43.4132Z" fill="#49263E"/>
<path d="M34.8973 80.9468C34.6786 80.9468 34.4561 80.8739 34.2757 80.7166C33.8729 80.3752 33.823 79.769 34.1645 79.3623L61.2547 47.4839C61.5923 47.081 62.2023 47.0273 62.609 47.3726C63.0118 47.7141 63.0617 48.3203 62.7202 48.7269L35.6301 80.6054C35.4421 80.8356 35.1697 80.9468 34.8973 80.9468Z" fill="#49263E"/>
</svg>
