<svg width="68" height="68" viewBox="0 0 68 68" fill="none" xmlns="http://www.w3.org/2000/svg">
<path d="M34.0003 0.666748C15.6003 0.666748 0.666992 15.6001 0.666992 34.0001C0.666992 52.4001 15.6003 67.3334 34.0003 67.3334C52.4003 67.3334 67.3337 52.4001 67.3337 34.0001C67.3337 15.6001 52.4003 0.666748 34.0003 0.666748ZM34.0003 14.0001C40.4337 14.0001 45.667 19.2334 45.667 25.6667C45.667 32.1001 40.4337 37.3334 34.0003 37.3334C27.567 37.3334 22.3337 32.1001 22.3337 25.6667C22.3337 19.2334 27.567 14.0001 34.0003 14.0001ZM34.0003 60.6668C27.2337 60.6668 19.2337 57.9334 13.5337 51.0668C19.3723 46.4858 26.5791 43.9961 34.0003 43.9961C41.4216 43.9961 48.6283 46.4858 54.467 51.0668C48.767 57.9334 40.767 60.6668 34.0003 60.6668Z" fill="#09003E"/>
</svg>
