<svg width="24" height="24" viewBox="0 0 24 24" fill="none" xmlns="http://www.w3.org/2000/svg">
<path d="M15.759 10.8935C15.759 11.3583 15.6523 11.7849 15.439 12.1735C15.2256 12.5545 14.898 12.863 14.4561 13.0992C14.0142 13.3354 13.4656 13.4535 12.8104 13.4535H11.599V16.3335H9.64468V8.31065H12.8104C13.4504 8.31065 13.9913 8.42112 14.4332 8.64207C14.8752 8.86303 15.2066 9.16779 15.4275 9.55636C15.6485 9.94493 15.759 10.3906 15.759 10.8935ZM12.6618 11.8992C13.0352 11.8992 13.3132 11.8116 13.4961 11.6364C13.679 11.4611 13.7704 11.2135 13.7704 10.8935C13.7704 10.5735 13.679 10.3259 13.4961 10.1506C13.3132 9.97541 13.0352 9.88779 12.6618 9.88779H11.599V11.8992H12.6618Z" fill="#333333"/>
<rect x="3" y="3" width="17.9999" height="17.9999" rx="8.99995" stroke="#333333" stroke-width="2"/>
</svg>
